<svg data-v-423bf9ae="" xmlns="http://www.w3.org/2000/svg" viewBox="0 0 441 90" class="iconLeft"><!----><!----><!----><g data-v-423bf9ae="" id="4c38706d-5c0b-44ac-83c8-ab1839e479a9" fill="#000000" transform="matrix(5.639098167419434,0,0,5.639098167419434,107.07865905761719,14.436090469360352)"><path d="M2.47 3.88L2.47 7.82L2.54 10.07L3.59 10.22L3.59 10.57L1.94 10.53L0.55 10.57L0.55 10.22L1.38 10.07L1.42 7.83L1.42 3.87L0.57 3.94L0.57 3.54L1.42 3.31L1.42 2.90L1.42 2.90Q1.42 1.72 2.37 0.91L2.37 0.91L2.37 0.91Q3.31 0.10 4.29 0.10L4.29 0.10L4.29 0.10Q4.85 0.10 5.22 0.23L5.22 0.23L5.55 0.36L4.98 1.80L4.68 1.73L4.73 1.01L4.31 0.83L4.31 0.83Q4.06 0.75 3.66 0.75L3.66 0.75L3.66 0.75Q3.17 0.75 2.80 1.16L2.80 1.16L2.80 1.16Q2.47 1.56 2.47 2.31L2.47 2.31L2.47 3.31L3.94 3.29L3.67 3.93L2.47 3.88ZM8.72 6.64L8.72 6.64L8.03 6.61L8.03 6.61Q7.36 6.61 6.79 6.79L6.79 6.79L6.79 6.79Q6.21 6.96 5.78 7.24L5.78 7.24L5.78 7.24Q5.39 7.53 5.18 7.87L5.18 7.87L5.18 7.87Q4.98 8.21 4.98 8.65L4.98 8.65L4.98 8.65Q4.98 9.13 5.31 9.51L5.31 9.51L5.31 9.51Q5.68 9.88 6.27 9.88L6.27 9.88L6.27 9.88Q7.40 9.88 8.03 9.00L8.03 9.00L8.03 9.00Q8.35 8.54 8.54 7.95L8.54 7.95L8.54 7.95Q8.72 7.35 8.72 6.64ZM8.71 8.79L8.71 8.79L8.71 8.79Q8.08 10.00 7.38 10.37L7.38 10.37L7.38 10.37Q6.67 10.74 6.03 10.74L6.03 10.74L6.03 10.74Q5.05 10.74 4.45 10.15L4.45 10.15L4.45 10.15Q3.85 9.57 3.85 8.78L3.85 8.78L3.85 8.78Q3.85 7.64 5.05 6.84L5.05 6.84L5.05 6.84Q6.26 6.04 8.15 6.04L8.15 6.04L8.78 6.04L8.78 5.58L8.78 5.58Q8.78 4.60 8.38 4.19L8.38 4.19L8.38 4.19Q7.98 3.77 7.15 3.77L7.15 3.77L7.15 3.77Q6.48 3.77 5.87 3.99L5.87 3.99L5.24 4.24L5.28 4.98L4.99 5.08L4.37 3.67L4.37 3.67Q4.67 3.54 5.36 3.32L5.36 3.32L5.36 3.32Q6.05 3.11 7.32 3.11L7.32 3.11L7.32 3.11Q8.35 3.11 9.03 3.61L9.03 3.61L9.03 3.61Q9.70 4.11 9.70 4.96L9.70 4.96L9.70 8.22L9.70 8.22Q9.70 9.01 9.77 9.44L9.77 9.44L9.77 9.44Q9.84 9.70 9.91 9.85L9.91 9.85L9.91 9.85Q9.95 9.94 10.07 10.06L10.07 10.06L10.62 10.22L10.62 10.58L9.89 10.56L9.48 10.54L9.48 10.54Q9.37 10.54 9.25 10.54L9.25 10.54L9.25 10.54Q9.14 10.54 8.98 10.57L8.98 10.57L8.98 10.57Q8.86 10.57 8.79 10.04L8.79 10.04L8.79 10.04Q8.77 9.78 8.76 9.64L8.76 9.64L8.76 9.64Q8.71 9.11 8.71 8.79ZM18.06 5.33L18.06 7.82L18.13 10.07L18.97 10.22L18.97 10.57L17.53 10.53L16.98 10.57L16.98 10.22L17.00 10.07L17.00 6.04L17.00 6.04Q17.00 4.98 16.62 4.47L16.62 4.47L16.62 4.47Q16.24 3.97 15.37 3.97L15.37 3.97L15.37 3.97Q14.45 3.97 13.92 4.71L13.92 4.71L13.92 4.71Q13.39 5.46 13.39 6.68L13.39 6.68L13.39 7.82L13.44 10.07L14.25 10.22L14.25 10.57L12.87 10.53L11.47 10.57L11.47 10.22L12.30 10.07L12.34 7.83L12.34 3.31L12.27 0.95L11.37 0.81L11.37 0.45L12.26 0.32L12.26 0.32Q12.58 0.26 13.15 0.10L13.15 0.10L13.42 0.10L13.39 2.01L13.39 4.42L13.39 4.42Q13.86 3.85 14.52 3.48L14.52 3.48L14.52 3.48Q15.19 3.11 15.91 3.11L15.91 3.11L15.91 3.11Q16.86 3.11 17.46 3.72L17.46 3.72L17.46 3.72Q18.06 4.33 18.06 5.33L18.06 5.33ZM21.45 6.97L21.45 7.82L21.52 10.07L22.48 10.22L22.48 10.57L20.92 10.53L19.54 10.57L19.54 10.22L20.36 10.07L20.40 7.83L20.40 6.29L20.34 3.93L19.43 3.78L19.43 3.43L19.43 3.43Q19.70 3.43 19.84 3.41L19.84 3.41L19.84 3.41Q19.99 3.40 20.34 3.32L20.34 3.32L20.34 3.32Q20.70 3.25 21.17 3.11L21.17 3.11L21.45 3.11L21.34 5.29L21.34 5.29Q21.82 4.21 22.39 3.65L22.39 3.65L22.39 3.65Q22.65 3.38 22.95 3.25L22.95 3.25L22.95 3.25Q23.26 3.11 23.59 3.11L23.59 3.11L23.59 3.11Q23.72 3.11 23.85 3.13L23.85 3.13L23.85 3.13Q23.98 3.16 24.12 3.20L24.12 3.20L24.12 3.20Q24.26 3.24 24.37 3.32L24.37 3.32L24.37 3.32Q24.10 3.81 23.91 4.25L23.91 4.25L23.91 4.25Q23.88 4.34 23.79 4.57L23.79 4.57L23.79 4.57Q23.71 4.80 23.67 4.91L23.67 4.91L23.67 4.91Q23.44 4.86 23.39 4.79L23.39 4.79L23.39 4.79Q23.39 4.69 23.41 4.66L23.41 4.66L23.41 4.66Q23.41 4.15 23.32 4.10L23.32 4.10L23.32 4.10Q23.22 4.06 23.10 4.06L23.10 4.06L23.10 4.06Q22.45 4.13 21.96 4.96L21.96 4.96L21.96 4.96Q21.73 5.39 21.59 5.90L21.59 5.90L21.59 5.90Q21.45 6.41 21.45 6.97L21.45 6.97ZM29.91 8.52L30.28 8.81L30.28 8.81Q29.89 9.56 29.00 10.16L29.00 10.16L29.00 10.16Q28.54 10.45 28.08 10.59L28.08 10.59L28.08 10.59Q27.63 10.74 27.11 10.74L27.11 10.74L27.11 10.74Q25.55 10.74 24.67 9.78L24.67 9.78L24.67 9.78Q23.79 8.83 23.79 7.11L23.79 7.11L23.79 7.11Q23.79 5.46 24.83 4.28L24.83 4.28L24.83 4.28Q25.87 3.11 27.34 3.11L27.34 3.11L27.34 3.11Q28.63 3.11 29.33 3.81L29.33 3.81L29.33 3.81Q30.06 4.48 30.06 5.71L30.06 5.71L30.11 6.23L24.93 6.23L24.91 6.47L24.91 7.01L24.91 7.01Q24.91 8.30 25.58 9.09L25.58 9.09L25.58 9.09Q26.25 9.88 27.39 9.88L27.39 9.88L27.39 9.88Q27.85 9.88 28.23 9.77L28.23 9.77L28.23 9.77Q28.61 9.66 28.95 9.43L28.95 9.43L28.95 9.43Q29.30 9.20 29.54 8.96L29.54 8.96L29.54 8.96Q29.78 8.72 29.91 8.52L29.91 8.52ZM25.00 5.64L25.00 5.64L28.27 5.58L28.93 5.53L28.93 5.53Q28.93 4.62 28.52 4.16L28.52 4.16L28.52 4.16Q28.12 3.69 27.33 3.69L27.33 3.69L27.33 3.69Q26.28 3.69 25.58 4.48L25.58 4.48L25.58 4.48Q25.21 4.90 25.00 5.64ZM37.01 5.33L37.01 7.82L37.08 10.07L37.91 10.22L37.91 10.57L36.47 10.53L35.92 10.57L35.92 10.22L35.95 10.07L35.95 6.04L35.95 6.04Q35.95 4.98 35.57 4.47L35.57 4.47L35.57 4.47Q35.18 3.97 34.31 3.97L34.31 3.97L34.31 3.97Q33.40 3.97 32.87 4.71L32.87 4.71L32.87 4.71Q32.34 5.46 32.34 6.68L32.34 6.68L32.34 7.82L32.38 10.07L33.19 10.22L33.19 10.57L31.81 10.53L30.42 10.57L30.42 10.22L31.24 10.07L31.29 7.83L31.29 6.29L31.22 3.93L30.31 3.78L30.31 3.43L30.31 3.43Q30.59 3.43 30.73 3.41L30.73 3.41L30.73 3.41Q30.87 3.40 31.22 3.32L31.22 3.32L31.22 3.32Q31.67 3.25 32.12 3.11L32.12 3.11L32.42 3.11L32.30 4.59L32.30 4.59Q32.89 3.90 33.51 3.50L33.51 3.50L33.51 3.50Q34.14 3.11 34.85 3.11L34.85 3.11L34.85 3.11Q35.80 3.11 36.41 3.72L36.41 3.72L36.41 3.72Q37.01 4.33 37.01 5.33L37.01 5.33ZM45.38 5.33L45.38 7.82L45.46 10.07L46.29 10.22L46.29 10.57L44.85 10.53L44.30 10.57L44.30 10.22L44.32 10.07L44.32 6.04L44.32 6.04Q44.32 4.98 43.94 4.47L43.94 4.47L43.94 4.47Q43.56 3.97 42.69 3.97L42.69 3.97L42.69 3.97Q41.77 3.97 41.24 4.71L41.24 4.71L41.24 4.71Q40.71 5.46 40.71 6.68L40.71 6.68L40.71 7.82L40.76 10.07L41.57 10.22L41.57 10.57L40.19 10.53L38.79 10.57L38.79 10.22L39.62 10.07L39.66 7.83L39.66 3.31L39.59 0.95L38.69 0.81L38.69 0.45L39.58 0.32L39.58 0.32Q39.90 0.26 40.47 0.10L40.47 0.10L40.74 0.10L40.71 2.01L40.71 4.42L40.71 4.42Q41.18 3.85 41.85 3.48L41.85 3.48L41.85 3.48Q42.51 3.11 43.23 3.11L43.23 3.11L43.23 3.11Q44.18 3.11 44.78 3.72L44.78 3.72L44.78 3.72Q45.38 4.33 45.38 5.33L45.38 5.33ZM52.03 8.52L52.40 8.81L52.40 8.81Q52.02 9.56 51.13 10.16L51.13 10.16L51.13 10.16Q50.66 10.45 50.21 10.59L50.21 10.59L50.21 10.59Q49.76 10.74 49.23 10.74L49.23 10.74L49.23 10.74Q47.67 10.74 46.80 9.78L46.80 9.78L46.80 9.78Q45.92 8.83 45.92 7.11L45.92 7.11L45.92 7.11Q45.92 5.46 46.96 4.28L46.96 4.28L46.96 4.28Q47.99 3.11 49.47 3.11L49.47 3.11L49.47 3.11Q50.76 3.11 51.46 3.81L51.46 3.81L51.46 3.81Q52.19 4.48 52.19 5.71L52.19 5.71L52.23 6.23L47.05 6.23L47.04 6.47L47.04 7.01L47.04 7.01Q47.04 8.30 47.71 9.09L47.71 9.09L47.71 9.09Q48.37 9.88 49.52 9.88L49.52 9.88L49.52 9.88Q49.97 9.88 50.35 9.77L50.35 9.77L50.35 9.77Q50.73 9.66 51.08 9.43L51.08 9.43L51.08 9.43Q51.42 9.20 51.66 8.96L51.66 8.96L51.66 8.96Q51.90 8.72 52.03 8.52L52.03 8.52ZM47.12 5.64L47.12 5.64L50.40 5.58L51.06 5.53L51.06 5.53Q51.06 4.62 50.65 4.16L50.65 4.16L50.65 4.16Q50.25 3.69 49.46 3.69L49.46 3.69L49.46 3.69Q48.41 3.69 47.71 4.48L47.71 4.48L47.71 4.48Q47.34 4.90 47.12 5.64ZM53.20 0.98L53.20 0.98L53.20 0.98Q53.20 0.68 53.40 0.48L53.40 0.48L53.40 0.48Q53.61 0.27 53.94 0.24L53.94 0.24L53.94 0.24Q54.24 0.24 54.45 0.46L54.45 0.46L54.45 0.46Q54.67 0.67 54.67 0.97L54.67 0.97L54.67 0.97Q54.67 1.27 54.47 1.47L54.47 1.47L54.47 1.47Q54.27 1.67 53.94 1.70L53.94 1.70L53.94 1.70Q53.65 1.70 53.41 1.49L53.41 1.49L53.41 1.49Q53.20 1.25 53.20 0.98ZM54.46 5.03L54.46 7.82L54.51 10.07L55.32 10.22L55.32 10.57L53.94 10.53L52.54 10.57L52.54 10.22L53.38 10.07L53.41 7.83L53.41 6.33L53.34 3.97L52.44 3.82L52.44 3.47L52.44 3.47Q52.74 3.43 53.01 3.39L53.01 3.39L53.01 3.39Q53.28 3.35 53.33 3.34L53.33 3.34L54.22 3.11L54.49 3.11L54.46 5.03ZM56.88 3.88L56.88 7.92L56.88 7.92Q56.88 8.96 57.08 9.42L57.08 9.42L57.08 9.42Q57.27 9.88 57.75 9.88L57.75 9.88L57.75 9.88Q58.09 9.88 58.35 9.71L58.35 9.71L58.35 9.71Q58.61 9.54 58.80 9.37L58.80 9.37L59.05 9.62L59.05 9.62Q58.93 9.82 58.72 10.04L58.72 10.04L58.72 10.04Q58.59 10.19 58.41 10.35L58.41 10.35L58.41 10.35Q57.99 10.74 57.30 10.74L57.30 10.74L57.30 10.74Q56.63 10.74 56.23 10.28L56.23 10.28L56.23 10.28Q55.83 9.83 55.83 9.02L55.83 9.02L55.83 3.88L55.00 3.94L55.00 3.54L55.83 3.30L55.76 1.60L56.94 1.27L56.88 3.31L58.67 3.29L58.41 3.91L56.88 3.88Z"></path></g><defs data-v-423bf9ae=""><linearGradient data-v-423bf9ae="" gradientTransform="rotate(25)" id="532ad830-a116-46a7-8156-ee5c2f8d8150" x1="0%" y1="0%" x2="100%" y2="0%"><stop data-v-423bf9ae="" offset="0%" style="stop-color: rgb(57, 94, 202); stop-opacity: 1;"></stop><stop data-v-423bf9ae="" offset="100%" style="stop-color: rgb(132, 139, 216); stop-opacity: 1;"></stop></linearGradient></defs><g data-v-423bf9ae="" id="2dd8cab7-d968-48be-924d-eca0b61836a6" transform="matrix(1.072475552558899,0,0,1.072475552558899,-7.629814147949219,-8.58277702331543)" stroke="none" fill="url(#532ad830-a116-46a7-8156-ee5c2f8d8150)"><path d="M69.866 37.28l-7.409-7.409 4.432-4.432-17.4-17.398-17.068 17.068 4.432 4.432-7.574 7.574-4.432-4.432-17.4 17.4 17.07 17.069 4.597-4.597 7.573 7.574-4.431 4.432 17.398 17.398 17.07-17.068-4.597-4.597 7.574-7.574 4.432 4.432 17.4-17.4-17.07-17.069-4.597 4.597zm4.267 27.044l-3.018-3.018L78.4 54.02l-.001-.002a5.784 5.784 0 0 0 1.7-4.1c0-3.2-2.602-5.803-5.801-5.803s-5.803 2.603-5.803 5.802c0 3.063 2.388 5.573 5.398 5.782l-13.18 13.18-11.389-11.388-7.73 7.73 1.415 1.414 6.315-6.316 14.572 14.572-14.242 14.24-14.57-14.57 3.018-3.018 7.285 7.285.002-.002a5.783 5.783 0 0 0 4.1 1.702c3.2 0 5.803-2.603 5.803-5.802s-2.604-5.803-5.803-5.803c-3.062 0-5.572 2.388-5.781 5.398l-13.18-13.18 11.388-11.389-7.73-7.73-1.414 1.415 6.316 6.315-14.571 14.572-14.242-14.241L24.847 35.51l3.018 3.018-7.286 7.286.002.002a5.784 5.784 0 0 0-1.702 4.1c0 3.2 2.603 5.803 5.803 5.803s5.801-2.603 5.801-5.803c0-3.062-2.386-5.572-5.397-5.781l13.18-13.18L49.82 42.509l7.73-7.73-1.413-1.414-6.317 6.316-14.57-14.572 14.24-14.24 14.572 14.57-3.018 3.018-7.285-7.285-.01.01a5.78 5.78 0 0 0-4.259-1.875c-3.199 0-5.802 2.603-5.802 5.802s2.603 5.802 5.802 5.802c3.063 0 5.573-2.387 5.782-5.398l13.18 13.181-11.388 11.389 7.73 7.729 1.414-1.414-6.315-6.315 14.57-14.572 14.242 14.241-14.571 14.572zm.165-10.604c-2.097 0-3.803-1.706-3.803-3.803s1.706-3.802 3.803-3.802 3.802 1.706 3.802 3.802-1.705 3.803-3.802 3.803zm-28.61 21.006c0-2.097 1.705-3.803 3.801-3.803s3.803 1.706 3.803 3.803-1.706 3.802-3.803 3.802-3.801-1.706-3.801-3.802zm-21.006-28.61c2.096 0 3.801 1.705 3.801 3.801s-1.705 3.803-3.801 3.803-3.803-1.706-3.803-3.803 1.706-3.802 3.803-3.802zM53.29 25.108c0 2.097-1.705 3.802-3.802 3.802s-3.802-1.705-3.802-3.802 1.706-3.802 3.802-3.802 3.802 1.705 3.802 3.802z"></path></g><!----></svg>